<mxfile host="app.diagrams.net" agent="Mozilla/5.0 (Windows NT 10.0; Win64; x64) AppleWebKit/537.36 (KHTML, like Gecko) Chrome/128.0.0.0 Safari/537.36" version="24.7.14">
  <diagram name="Página-1" id="sj9_wfyoLUOM8dX0--8b">
    <mxGraphModel dx="2261" dy="1907" grid="1" gridSize="10" guides="1" tooltips="1" connect="1" arrows="1" fold="1" page="1" pageScale="1" pageWidth="827" pageHeight="1169" math="0" shadow="0">
      <root>
        <mxCell id="0" />
        <mxCell id="1" parent="0" />
        <mxCell id="MfplE-wGYaaptmmhJZ9_-1" value="&lt;font style=&quot;font-size: 24px;&quot;&gt;0&lt;/font&gt;" style="ellipse;whiteSpace=wrap;html=1;aspect=fixed;" parent="1" vertex="1">
          <mxGeometry x="10" y="110" width="100" height="100" as="geometry" />
        </mxCell>
        <mxCell id="MfplE-wGYaaptmmhJZ9_-2" value="&lt;span style=&quot;font-size: 24px;&quot;&gt;1&lt;/span&gt;" style="ellipse;whiteSpace=wrap;html=1;aspect=fixed;" parent="1" vertex="1">
          <mxGeometry x="310" y="-210" width="100" height="100" as="geometry" />
        </mxCell>
        <mxCell id="MfplE-wGYaaptmmhJZ9_-3" value="&lt;span style=&quot;font-size: 24px;&quot;&gt;2&lt;/span&gt;" style="ellipse;whiteSpace=wrap;html=1;aspect=fixed;" parent="1" vertex="1">
          <mxGeometry x="375" y="-50" width="100" height="100" as="geometry" />
        </mxCell>
        <mxCell id="MfplE-wGYaaptmmhJZ9_-4" value="&lt;span style=&quot;font-size: 24px;&quot;&gt;F&lt;/span&gt;" style="ellipse;whiteSpace=wrap;html=1;aspect=fixed;" parent="1" vertex="1">
          <mxGeometry x="2050" y="90" width="100" height="100" as="geometry" />
        </mxCell>
        <mxCell id="MfplE-wGYaaptmmhJZ9_-5" value="&lt;span style=&quot;font-size: 24px;&quot;&gt;E&lt;/span&gt;" style="ellipse;whiteSpace=wrap;html=1;aspect=fixed;" parent="1" vertex="1">
          <mxGeometry x="630" y="300" width="100" height="100" as="geometry" />
        </mxCell>
        <mxCell id="MfplE-wGYaaptmmhJZ9_-6" value="" style="endArrow=classic;html=1;rounded=0;entryX=0.57;entryY=-0.03;entryDx=0;entryDy=0;entryPerimeter=0;" parent="1" target="MfplE-wGYaaptmmhJZ9_-4" edge="1">
          <mxGeometry width="50" height="50" relative="1" as="geometry">
            <mxPoint x="60" y="110" as="sourcePoint" />
            <mxPoint x="860" y="20" as="targetPoint" />
            <Array as="points">
              <mxPoint x="110" y="-230" />
              <mxPoint x="280" y="-300" />
              <mxPoint x="620" y="-310" />
              <mxPoint x="810" y="-210" />
            </Array>
          </mxGeometry>
        </mxCell>
        <mxCell id="MfplE-wGYaaptmmhJZ9_-7" value="&lt;font style=&quot;font-size: 24px;&quot;&gt;&lt;font style=&quot;&quot;&gt;“+”, “-” , “*”, “/”,“(”, “)”,“,”,“.”,“;”,&lt;/font&gt;“=”,&quot;*&quot;&lt;/font&gt;" style="text;html=1;align=center;verticalAlign=middle;resizable=0;points=[];autosize=1;strokeColor=none;fillColor=none;" parent="1" vertex="1">
          <mxGeometry x="170" y="-350" width="400" height="40" as="geometry" />
        </mxCell>
        <mxCell id="MfplE-wGYaaptmmhJZ9_-8" value="" style="endArrow=classic;html=1;rounded=0;entryX=0.003;entryY=0.795;entryDx=0;entryDy=0;entryPerimeter=0;" parent="1" target="MfplE-wGYaaptmmhJZ9_-2" edge="1">
          <mxGeometry width="50" height="50" relative="1" as="geometry">
            <mxPoint x="80" y="110" as="sourcePoint" />
            <mxPoint x="130" y="60" as="targetPoint" />
          </mxGeometry>
        </mxCell>
        <mxCell id="MfplE-wGYaaptmmhJZ9_-9" value="&lt;br&gt;&lt;span style=&quot;font-size: 18px;&quot;&gt;&lt;b&gt;concatenar()&lt;/b&gt;&lt;/span&gt;" style="text;html=1;align=center;verticalAlign=middle;resizable=0;points=[];autosize=1;strokeColor=none;fillColor=none;" parent="1" vertex="1">
          <mxGeometry x="1090" y="-420" width="130" height="50" as="geometry" />
        </mxCell>
        <mxCell id="MfplE-wGYaaptmmhJZ9_-10" value="&lt;b style=&quot;font-size: 18px;&quot;&gt;generarASCII()&lt;/b&gt;" style="text;html=1;align=center;verticalAlign=middle;resizable=0;points=[];autosize=1;strokeColor=none;fillColor=none;" parent="1" vertex="1">
          <mxGeometry x="375" y="-300" width="150" height="40" as="geometry" />
        </mxCell>
        <mxCell id="MfplE-wGYaaptmmhJZ9_-11" value="&lt;span style=&quot;font-size: 24px;&quot;&gt;L&lt;/span&gt;" style="text;html=1;align=center;verticalAlign=middle;resizable=0;points=[];autosize=1;strokeColor=none;fillColor=none;" parent="1" vertex="1">
          <mxGeometry x="120" width="40" height="40" as="geometry" />
        </mxCell>
        <mxCell id="MfplE-wGYaaptmmhJZ9_-13" value="&#xa;&lt;b style=&quot;forced-color-adjust: none; color: rgb(0, 0, 0); font-family: Helvetica; font-style: normal; font-variant-ligatures: normal; font-variant-caps: normal; letter-spacing: normal; orphans: 2; text-align: center; text-indent: 0px; text-transform: none; widows: 2; word-spacing: 0px; -webkit-text-stroke-width: 0px; white-space: nowrap; background-color: rgb(251, 251, 251); text-decoration-thickness: initial; text-decoration-style: initial; text-decoration-color: initial; font-size: 18px;&quot;&gt;generarASCII()&lt;/b&gt;&#xa;&#xa;" style="text;html=1;align=center;verticalAlign=middle;resizable=0;points=[];autosize=1;strokeColor=none;fillColor=none;" parent="1" vertex="1">
          <mxGeometry x="1080" y="-470" width="150" height="60" as="geometry" />
        </mxCell>
        <mxCell id="MfplE-wGYaaptmmhJZ9_-14" value="&lt;br&gt;&lt;span style=&quot;font-size: 18px;&quot;&gt;&lt;b&gt;concatenar()&lt;/b&gt;&lt;/span&gt;" style="text;html=1;align=center;verticalAlign=middle;resizable=0;points=[];autosize=1;strokeColor=none;fillColor=none;rotation=-45;" parent="1" vertex="1">
          <mxGeometry x="130" y="-80" width="130" height="50" as="geometry" />
        </mxCell>
        <mxCell id="MfplE-wGYaaptmmhJZ9_-16" value="&lt;br&gt;&lt;span style=&quot;font-size: 18px;&quot;&gt;&lt;b&gt;concatenar()&lt;/b&gt;&lt;/span&gt;" style="text;html=1;align=center;verticalAlign=middle;resizable=0;points=[];autosize=1;strokeColor=none;fillColor=none;rotation=-30;" parent="1" vertex="1">
          <mxGeometry x="210" y="-250" width="130" height="50" as="geometry" />
        </mxCell>
        <mxCell id="MfplE-wGYaaptmmhJZ9_-20" value="&lt;font style=&quot;font-size: 24px;&quot;&gt;L, d, &quot;_&quot;&lt;/font&gt;" style="text;html=1;align=center;verticalAlign=middle;resizable=0;points=[];autosize=1;strokeColor=none;fillColor=none;" parent="1" vertex="1">
          <mxGeometry x="200" y="-180" width="110" height="40" as="geometry" />
        </mxCell>
        <mxCell id="MfplE-wGYaaptmmhJZ9_-21" value="" style="endArrow=classic;html=1;rounded=0;exitX=0.964;exitY=0.385;exitDx=0;exitDy=0;exitPerimeter=0;entryX=0.27;entryY=-0.001;entryDx=0;entryDy=0;entryPerimeter=0;" parent="1" source="MfplE-wGYaaptmmhJZ9_-2" target="MfplE-wGYaaptmmhJZ9_-4" edge="1">
          <mxGeometry width="50" height="50" relative="1" as="geometry">
            <mxPoint x="510" y="-10" as="sourcePoint" />
            <mxPoint x="560" y="-60" as="targetPoint" />
            <Array as="points">
              <mxPoint x="570" y="-260" />
              <mxPoint x="800" y="-140" />
            </Array>
          </mxGeometry>
        </mxCell>
        <mxCell id="MfplE-wGYaaptmmhJZ9_-22" value="" style="endArrow=classic;html=1;rounded=0;exitX=0;exitY=0.5;exitDx=0;exitDy=0;entryX=0.234;entryY=0.048;entryDx=0;entryDy=0;entryPerimeter=0;" parent="1" source="MfplE-wGYaaptmmhJZ9_-2" target="MfplE-wGYaaptmmhJZ9_-2" edge="1">
          <mxGeometry width="50" height="50" relative="1" as="geometry">
            <mxPoint x="279.0999999999999" y="-147.70000000000005" as="sourcePoint" />
            <mxPoint x="320" y="-240" as="targetPoint" />
            <Array as="points">
              <mxPoint x="280" y="-180" />
              <mxPoint x="310" y="-220" />
            </Array>
          </mxGeometry>
        </mxCell>
        <mxCell id="MfplE-wGYaaptmmhJZ9_-26" value="&lt;font style=&quot;font-size: 24px;&quot;&gt;C - {L, d, &quot;_&quot;}&lt;/font&gt;" style="text;html=1;align=center;verticalAlign=middle;resizable=0;points=[];autosize=1;strokeColor=none;fillColor=none;" parent="1" vertex="1">
          <mxGeometry x="470" y="-230" width="160" height="40" as="geometry" />
        </mxCell>
        <mxCell id="MfplE-wGYaaptmmhJZ9_-28" value="&lt;br&gt;&lt;span style=&quot;font-size: 18px;&quot;&gt;&lt;b&gt;PRoTruncar()&lt;/b&gt;&lt;/span&gt;" style="text;html=1;align=center;verticalAlign=middle;resizable=0;points=[];autosize=1;strokeColor=none;fillColor=none;" parent="1" vertex="1">
          <mxGeometry x="1085" y="-380" width="140" height="50" as="geometry" />
        </mxCell>
        <mxCell id="MfplE-wGYaaptmmhJZ9_-29" value="&lt;br&gt;&lt;span style=&quot;font-size: 18px;&quot;&gt;&lt;b&gt;PRoTruncar()&lt;/b&gt;&lt;/span&gt;" style="text;html=1;align=center;verticalAlign=middle;resizable=0;points=[];autosize=1;strokeColor=none;fillColor=none;rotation=30;" parent="1" vertex="1">
          <mxGeometry x="630" y="-200" width="140" height="50" as="geometry" />
        </mxCell>
        <mxCell id="MfplE-wGYaaptmmhJZ9_-30" value="&lt;br&gt;&lt;span style=&quot;font-size: 18px;&quot;&gt;&lt;b&gt;resetear()&lt;/b&gt;&lt;/span&gt;" style="text;html=1;align=center;verticalAlign=middle;resizable=0;points=[];autosize=1;strokeColor=none;fillColor=none;" parent="1" vertex="1">
          <mxGeometry x="1110" y="-340" width="110" height="50" as="geometry" />
        </mxCell>
        <mxCell id="MfplE-wGYaaptmmhJZ9_-31" value="&lt;br&gt;&lt;span style=&quot;font-size: 18px;&quot;&gt;&lt;b&gt;resetear()&lt;/b&gt;&lt;/span&gt;" style="text;html=1;align=center;verticalAlign=middle;resizable=0;points=[];autosize=1;strokeColor=none;fillColor=none;rotation=30;" parent="1" vertex="1">
          <mxGeometry x="630" y="-180" width="110" height="50" as="geometry" />
        </mxCell>
        <mxCell id="MfplE-wGYaaptmmhJZ9_-32" value="" style="endArrow=classic;html=1;rounded=0;entryX=-0.011;entryY=0.362;entryDx=0;entryDy=0;entryPerimeter=0;exitX=1;exitY=0;exitDx=0;exitDy=0;" parent="1" source="MfplE-wGYaaptmmhJZ9_-1" target="MfplE-wGYaaptmmhJZ9_-3" edge="1">
          <mxGeometry width="50" height="50" relative="1" as="geometry">
            <mxPoint x="150" y="270" as="sourcePoint" />
            <mxPoint x="380" y="30" as="targetPoint" />
          </mxGeometry>
        </mxCell>
        <mxCell id="MfplE-wGYaaptmmhJZ9_-34" value="&lt;font style=&quot;font-size: 24px;&quot;&gt;&quot;&amp;lt;&quot;, &quot;&amp;gt;&quot;&lt;/font&gt;" style="edgeLabel;html=1;align=center;verticalAlign=middle;resizable=0;points=[];" parent="MfplE-wGYaaptmmhJZ9_-32" vertex="1" connectable="0">
          <mxGeometry x="-0.0288" y="-6" relative="1" as="geometry">
            <mxPoint x="-24" y="37" as="offset" />
          </mxGeometry>
        </mxCell>
        <mxCell id="MfplE-wGYaaptmmhJZ9_-35" value="&lt;br&gt;&lt;span style=&quot;font-size: 18px;&quot;&gt;&lt;b&gt;concatenar()&lt;/b&gt;&lt;/span&gt;" style="text;html=1;align=center;verticalAlign=middle;resizable=0;points=[];autosize=1;strokeColor=none;fillColor=none;rotation=-30;" parent="1" vertex="1">
          <mxGeometry x="230" y="10" width="130" height="50" as="geometry" />
        </mxCell>
        <mxCell id="MfplE-wGYaaptmmhJZ9_-38" value="" style="endArrow=classic;html=1;rounded=0;entryX=0;entryY=0;entryDx=0;entryDy=0;exitX=1;exitY=0;exitDx=0;exitDy=0;" parent="1" source="MfplE-wGYaaptmmhJZ9_-3" target="MfplE-wGYaaptmmhJZ9_-4" edge="1">
          <mxGeometry width="50" height="50" relative="1" as="geometry">
            <mxPoint x="610" y="210" as="sourcePoint" />
            <mxPoint x="889" y="71" as="targetPoint" />
            <Array as="points">
              <mxPoint x="780" y="-80" />
            </Array>
          </mxGeometry>
        </mxCell>
        <mxCell id="MfplE-wGYaaptmmhJZ9_-40" value="" style="endArrow=classic;html=1;rounded=0;entryX=0;entryY=0.5;entryDx=0;entryDy=0;exitX=1;exitY=0.5;exitDx=0;exitDy=0;" parent="1" source="MfplE-wGYaaptmmhJZ9_-46" target="MfplE-wGYaaptmmhJZ9_-4" edge="1">
          <mxGeometry width="50" height="50" relative="1" as="geometry">
            <mxPoint x="590" y="180" as="sourcePoint" />
            <mxPoint x="480" y="30" as="targetPoint" />
          </mxGeometry>
        </mxCell>
        <mxCell id="MfplE-wGYaaptmmhJZ9_-41" value="&lt;font style=&quot;font-size: 24px;&quot;&gt;&quot;=&quot;&lt;/font&gt;" style="text;html=1;align=center;verticalAlign=middle;resizable=0;points=[];autosize=1;strokeColor=none;fillColor=none;" parent="1" vertex="1">
          <mxGeometry x="600" y="-100" width="50" height="40" as="geometry" />
        </mxCell>
        <mxCell id="MfplE-wGYaaptmmhJZ9_-43" value="&lt;br&gt;&lt;span style=&quot;font-size: 18px;&quot;&gt;&lt;b&gt;concatenar(), generarToken()&lt;/b&gt;&lt;/span&gt;" style="text;html=1;align=center;verticalAlign=middle;resizable=0;points=[];autosize=1;strokeColor=none;fillColor=none;rotation=0;" parent="1" vertex="1">
          <mxGeometry x="560" y="-80" width="270" height="50" as="geometry" />
        </mxCell>
        <mxCell id="MfplE-wGYaaptmmhJZ9_-44" value="&lt;b style=&quot;font-size: 18px;&quot;&gt;generarToken()&lt;/b&gt;" style="text;html=1;align=center;verticalAlign=middle;resizable=0;points=[];autosize=1;strokeColor=none;fillColor=none;" parent="1" vertex="1">
          <mxGeometry x="1075" y="-290" width="150" height="40" as="geometry" />
        </mxCell>
        <mxCell id="MfplE-wGYaaptmmhJZ9_-45" value="&lt;span style=&quot;font-size: 24px;&quot;&gt;C - {&quot;=&quot;}&lt;/span&gt;" style="text;html=1;align=center;verticalAlign=middle;resizable=0;points=[];autosize=1;strokeColor=none;fillColor=none;" parent="1" vertex="1">
          <mxGeometry x="510" y="15" width="110" height="40" as="geometry" />
        </mxCell>
        <mxCell id="MfplE-wGYaaptmmhJZ9_-48" value="&lt;span style=&quot;font-size: 24px;&quot;&gt;3&lt;/span&gt;" style="ellipse;whiteSpace=wrap;html=1;aspect=fixed;" parent="1" vertex="1">
          <mxGeometry x="420" y="110" width="100" height="100" as="geometry" />
        </mxCell>
        <mxCell id="MfplE-wGYaaptmmhJZ9_-50" value="" style="endArrow=classic;html=1;rounded=0;exitX=1;exitY=0.5;exitDx=0;exitDy=0;" parent="1" source="MfplE-wGYaaptmmhJZ9_-1" target="MfplE-wGYaaptmmhJZ9_-48" edge="1">
          <mxGeometry width="50" height="50" relative="1" as="geometry">
            <mxPoint x="130" y="210" as="sourcePoint" />
            <mxPoint x="180" y="160" as="targetPoint" />
          </mxGeometry>
        </mxCell>
        <mxCell id="MfplE-wGYaaptmmhJZ9_-51" value="&lt;font style=&quot;font-size: 24px;&quot;&gt;&quot;!&quot;&lt;/font&gt;" style="text;html=1;align=center;verticalAlign=middle;resizable=0;points=[];autosize=1;strokeColor=none;fillColor=none;" parent="1" vertex="1">
          <mxGeometry x="150" y="160" width="50" height="40" as="geometry" />
        </mxCell>
        <mxCell id="MfplE-wGYaaptmmhJZ9_-52" value="&lt;br&gt;&lt;span style=&quot;font-size: 18px;&quot;&gt;&lt;b&gt;concatenar()&lt;/b&gt;&lt;/span&gt;" style="text;html=1;align=center;verticalAlign=middle;resizable=0;points=[];autosize=1;strokeColor=none;fillColor=none;rotation=0;" parent="1" vertex="1">
          <mxGeometry x="200" y="150" width="130" height="50" as="geometry" />
        </mxCell>
        <mxCell id="MfplE-wGYaaptmmhJZ9_-54" value="" style="endArrow=classic;html=1;rounded=0;entryX=0;entryY=0.729;entryDx=0;entryDy=0;entryPerimeter=0;" parent="1" target="MfplE-wGYaaptmmhJZ9_-4" edge="1">
          <mxGeometry width="50" height="50" relative="1" as="geometry">
            <mxPoint x="520" y="170" as="sourcePoint" />
            <mxPoint x="570" y="120" as="targetPoint" />
          </mxGeometry>
        </mxCell>
        <mxCell id="MfplE-wGYaaptmmhJZ9_-55" value="&lt;font style=&quot;font-size: 24px;&quot;&gt;&quot;=&quot;&lt;/font&gt;" style="text;html=1;align=center;verticalAlign=middle;resizable=0;points=[];autosize=1;strokeColor=none;fillColor=none;" parent="1" vertex="1">
          <mxGeometry x="560" y="120" width="50" height="40" as="geometry" />
        </mxCell>
        <mxCell id="MfplE-wGYaaptmmhJZ9_-56" value="&lt;br&gt;&lt;span style=&quot;font-size: 18px;&quot;&gt;&lt;b&gt;concatenar(), generarToken()&lt;/b&gt;&lt;/span&gt;" style="text;html=1;align=center;verticalAlign=middle;resizable=0;points=[];autosize=1;strokeColor=none;fillColor=none;rotation=0;" parent="1" vertex="1">
          <mxGeometry x="620" y="105" width="270" height="50" as="geometry" />
        </mxCell>
        <mxCell id="MfplE-wGYaaptmmhJZ9_-57" value="" style="endArrow=classic;html=1;rounded=0;entryX=0;entryY=0.5;entryDx=0;entryDy=0;exitX=1;exitY=0.5;exitDx=0;exitDy=0;" parent="1" source="MfplE-wGYaaptmmhJZ9_-3" target="MfplE-wGYaaptmmhJZ9_-46" edge="1">
          <mxGeometry width="50" height="50" relative="1" as="geometry">
            <mxPoint x="475" as="sourcePoint" />
            <mxPoint x="1070" y="80" as="targetPoint" />
          </mxGeometry>
        </mxCell>
        <mxCell id="MfplE-wGYaaptmmhJZ9_-46" value="&lt;br&gt;&lt;b style=&quot;font-size: 18px;&quot;&gt;generarASCII(),&amp;nbsp;&lt;/b&gt;&lt;br&gt;&lt;span style=&quot;font-size: 18px;&quot;&gt;&lt;b&gt;resetear()&lt;/b&gt;&lt;/span&gt;" style="text;html=1;align=center;verticalAlign=middle;resizable=0;points=[];autosize=1;strokeColor=none;fillColor=none;rotation=5;" parent="1" vertex="1">
          <mxGeometry x="640" width="160" height="70" as="geometry" />
        </mxCell>
        <mxCell id="MfplE-wGYaaptmmhJZ9_-71" value="" style="endArrow=classic;html=1;rounded=0;exitX=0.733;exitY=0.818;exitDx=0;exitDy=0;exitPerimeter=0;" parent="1" source="MfplE-wGYaaptmmhJZ9_-48" edge="1">
          <mxGeometry width="50" height="50" relative="1" as="geometry">
            <mxPoint x="560" y="530" as="sourcePoint" />
            <mxPoint x="630" y="340" as="targetPoint" />
          </mxGeometry>
        </mxCell>
        <mxCell id="MfplE-wGYaaptmmhJZ9_-72" value="&lt;span style=&quot;font-size: 24px;&quot;&gt;C - {&quot;=&quot;}&lt;/span&gt;" style="text;html=1;align=center;verticalAlign=middle;resizable=0;points=[];autosize=1;strokeColor=none;fillColor=none;rotation=45;" parent="1" vertex="1">
          <mxGeometry x="520" y="230" width="110" height="40" as="geometry" />
        </mxCell>
        <mxCell id="MfplE-wGYaaptmmhJZ9_-74" value="&lt;b style=&quot;font-size: 18px;&quot;&gt;error()&lt;/b&gt;" style="text;html=1;align=center;verticalAlign=middle;resizable=0;points=[];autosize=1;strokeColor=none;fillColor=none;rotation=45;" parent="1" vertex="1">
          <mxGeometry x="500" y="260" width="80" height="40" as="geometry" />
        </mxCell>
        <mxCell id="MfplE-wGYaaptmmhJZ9_-75" value="&lt;b style=&quot;font-size: 18px;&quot;&gt;error()&lt;/b&gt;" style="text;html=1;align=center;verticalAlign=middle;resizable=0;points=[];autosize=1;strokeColor=none;fillColor=none;" parent="1" vertex="1">
          <mxGeometry x="1145" y="-260" width="80" height="40" as="geometry" />
        </mxCell>
        <mxCell id="MfplE-wGYaaptmmhJZ9_-76" value="&lt;span style=&quot;font-size: 24px;&quot;&gt;4&lt;/span&gt;" style="ellipse;whiteSpace=wrap;html=1;aspect=fixed;" parent="1" vertex="1">
          <mxGeometry x="270" y="350" width="100" height="100" as="geometry" />
        </mxCell>
        <mxCell id="MfplE-wGYaaptmmhJZ9_-77" value="" style="endArrow=classic;html=1;rounded=0;exitX=1;exitY=1;exitDx=0;exitDy=0;entryX=-0.028;entryY=0.251;entryDx=0;entryDy=0;entryPerimeter=0;" parent="1" source="MfplE-wGYaaptmmhJZ9_-1" target="MfplE-wGYaaptmmhJZ9_-76" edge="1">
          <mxGeometry width="50" height="50" relative="1" as="geometry">
            <mxPoint x="430" y="360" as="sourcePoint" />
            <mxPoint x="480" y="310" as="targetPoint" />
          </mxGeometry>
        </mxCell>
        <mxCell id="MfplE-wGYaaptmmhJZ9_-80" value="&lt;font style=&quot;font-size: 24px;&quot;&gt;&quot;{&quot;&lt;/font&gt;" style="text;html=1;align=center;verticalAlign=middle;resizable=0;points=[];autosize=1;strokeColor=none;fillColor=none;" parent="1" vertex="1">
          <mxGeometry x="130" y="270" width="50" height="40" as="geometry" />
        </mxCell>
        <mxCell id="MfplE-wGYaaptmmhJZ9_-82" value="" style="endArrow=classic;html=1;rounded=0;exitX=0;exitY=0;exitDx=0;exitDy=0;entryX=1;entryY=0;entryDx=0;entryDy=0;" parent="1" source="MfplE-wGYaaptmmhJZ9_-76" target="MfplE-wGYaaptmmhJZ9_-76" edge="1">
          <mxGeometry width="50" height="50" relative="1" as="geometry">
            <mxPoint x="300" y="320" as="sourcePoint" />
            <mxPoint x="410" y="320" as="targetPoint" />
            <Array as="points">
              <mxPoint x="300" y="300" />
              <mxPoint x="355" y="310" />
            </Array>
          </mxGeometry>
        </mxCell>
        <mxCell id="MfplE-wGYaaptmmhJZ9_-83" value="&lt;font style=&quot;font-size: 24px;&quot;&gt;C - { &quot;/n&quot;,&quot;}&quot; }&lt;/font&gt;" style="text;html=1;align=center;verticalAlign=middle;resizable=0;points=[];autosize=1;strokeColor=none;fillColor=none;" parent="1" vertex="1">
          <mxGeometry x="240" y="260" width="160" height="40" as="geometry" />
        </mxCell>
        <mxCell id="MfplE-wGYaaptmmhJZ9_-84" value="" style="endArrow=classic;html=1;rounded=0;exitX=0.967;exitY=0.329;exitDx=0;exitDy=0;exitPerimeter=0;entryX=0.044;entryY=0.64;entryDx=0;entryDy=0;entryPerimeter=0;" parent="1" source="MfplE-wGYaaptmmhJZ9_-76" target="MfplE-wGYaaptmmhJZ9_-5" edge="1">
          <mxGeometry width="50" height="50" relative="1" as="geometry">
            <mxPoint x="430" y="190" as="sourcePoint" />
            <mxPoint x="490" y="420" as="targetPoint" />
          </mxGeometry>
        </mxCell>
        <mxCell id="MfplE-wGYaaptmmhJZ9_-85" value="&lt;font style=&quot;font-size: 24px;&quot;&gt;&quot;/n&quot;&lt;/font&gt;" style="text;html=1;align=center;verticalAlign=middle;resizable=0;points=[];autosize=1;strokeColor=none;fillColor=none;" parent="1" vertex="1">
          <mxGeometry x="420" y="380" width="60" height="40" as="geometry" />
        </mxCell>
        <mxCell id="MfplE-wGYaaptmmhJZ9_-87" value="&lt;b style=&quot;font-size: 18px;&quot;&gt;error()&lt;/b&gt;" style="text;html=1;align=center;verticalAlign=middle;resizable=0;points=[];autosize=1;strokeColor=none;fillColor=none;rotation=0;" parent="1" vertex="1">
          <mxGeometry x="500" y="370" width="80" height="40" as="geometry" />
        </mxCell>
        <mxCell id="MfplE-wGYaaptmmhJZ9_-93" value="" style="endArrow=classic;html=1;rounded=0;exitX=0.5;exitY=1;exitDx=0;exitDy=0;entryX=0;entryY=1;entryDx=0;entryDy=0;" parent="1" target="MfplE-wGYaaptmmhJZ9_-4" edge="1">
          <mxGeometry width="50" height="50" relative="1" as="geometry">
            <mxPoint x="360" y="430" as="sourcePoint" />
            <mxPoint x="1110" y="320" as="targetPoint" />
            <Array as="points">
              <mxPoint x="650" y="480" />
              <mxPoint x="990" y="370" />
            </Array>
          </mxGeometry>
        </mxCell>
        <mxCell id="MfplE-wGYaaptmmhJZ9_-94" value="&lt;font style=&quot;font-size: 24px;&quot;&gt;&quot;}&quot;&lt;/font&gt;" style="text;html=1;align=center;verticalAlign=middle;resizable=0;points=[];autosize=1;strokeColor=none;fillColor=none;" parent="1" vertex="1">
          <mxGeometry x="870" y="350" width="50" height="40" as="geometry" />
        </mxCell>
        <mxCell id="MfplE-wGYaaptmmhJZ9_-95" value="&lt;b style=&quot;font-size: 18px;&quot;&gt;generarToken()&lt;/b&gt;" style="text;html=1;align=center;verticalAlign=middle;resizable=0;points=[];autosize=1;strokeColor=none;fillColor=none;rotation=-15;" parent="1" vertex="1">
          <mxGeometry x="920" y="320" width="150" height="40" as="geometry" />
        </mxCell>
        <mxCell id="MfplE-wGYaaptmmhJZ9_-96" value="&lt;br&gt;&lt;span style=&quot;font-size: 18px;&quot;&gt;&lt;b&gt;concatenar()&lt;/b&gt;&lt;/span&gt;" style="text;html=1;align=center;verticalAlign=middle;resizable=0;points=[];autosize=1;strokeColor=none;fillColor=none;rotation=0;" parent="1" vertex="1">
          <mxGeometry x="255" y="220" width="130" height="50" as="geometry" />
        </mxCell>
        <mxCell id="MfplE-wGYaaptmmhJZ9_-98" value="&lt;span style=&quot;font-size: 24px;&quot;&gt;5&lt;/span&gt;" style="ellipse;whiteSpace=wrap;html=1;aspect=fixed;" parent="1" vertex="1">
          <mxGeometry x="270" y="560" width="100" height="100" as="geometry" />
        </mxCell>
        <mxCell id="MfplE-wGYaaptmmhJZ9_-102" value="" style="endArrow=classic;html=1;rounded=0;exitX=0.5;exitY=1;exitDx=0;exitDy=0;entryX=0.033;entryY=0.329;entryDx=0;entryDy=0;entryPerimeter=0;" parent="1" source="MfplE-wGYaaptmmhJZ9_-1" target="MfplE-wGYaaptmmhJZ9_-98" edge="1">
          <mxGeometry width="50" height="50" relative="1" as="geometry">
            <mxPoint x="80" y="550" as="sourcePoint" />
            <mxPoint x="130" y="500" as="targetPoint" />
            <Array as="points">
              <mxPoint x="100" y="410" />
            </Array>
          </mxGeometry>
        </mxCell>
        <mxCell id="MfplE-wGYaaptmmhJZ9_-105" value="&lt;font style=&quot;font-size: 24px;&quot;&gt;d - {0}&lt;/font&gt;" style="text;html=1;align=center;verticalAlign=middle;whiteSpace=wrap;rounded=0;" parent="1" vertex="1">
          <mxGeometry x="70" y="370" width="120" height="30" as="geometry" />
        </mxCell>
        <mxCell id="MfplE-wGYaaptmmhJZ9_-111" value="" style="endArrow=classic;html=1;rounded=0;exitX=0.022;exitY=0.884;exitDx=0;exitDy=0;exitPerimeter=0;entryX=1;entryY=1;entryDx=0;entryDy=0;" parent="1" source="MfplE-wGYaaptmmhJZ9_-98" target="MfplE-wGYaaptmmhJZ9_-98" edge="1">
          <mxGeometry width="50" height="50" relative="1" as="geometry">
            <mxPoint x="330" y="840" as="sourcePoint" />
            <mxPoint x="380" y="790" as="targetPoint" />
            <Array as="points">
              <mxPoint x="310" y="700" />
            </Array>
          </mxGeometry>
        </mxCell>
        <mxCell id="MfplE-wGYaaptmmhJZ9_-112" value="&lt;font style=&quot;font-size: 24px;&quot;&gt;d&lt;/font&gt;" style="text;html=1;align=center;verticalAlign=middle;whiteSpace=wrap;rounded=0;" parent="1" vertex="1">
          <mxGeometry x="246" y="701" width="120" height="30" as="geometry" />
        </mxCell>
        <mxCell id="MfplE-wGYaaptmmhJZ9_-132" style="edgeStyle=orthogonalEdgeStyle;rounded=0;orthogonalLoop=1;jettySize=auto;html=1;exitX=1;exitY=0.5;exitDx=0;exitDy=0;entryX=1;entryY=1;entryDx=0;entryDy=0;" parent="1" source="MfplE-wGYaaptmmhJZ9_-119" target="MfplE-wGYaaptmmhJZ9_-5" edge="1">
          <mxGeometry relative="1" as="geometry" />
        </mxCell>
        <mxCell id="MfplE-wGYaaptmmhJZ9_-119" value="&lt;span style=&quot;font-size: 24px;&quot;&gt;6&lt;/span&gt;" style="ellipse;whiteSpace=wrap;html=1;aspect=fixed;" parent="1" vertex="1">
          <mxGeometry x="525" y="570" width="100" height="100" as="geometry" />
        </mxCell>
        <mxCell id="MfplE-wGYaaptmmhJZ9_-121" value="" style="endArrow=classic;html=1;rounded=0;exitX=1;exitY=0.5;exitDx=0;exitDy=0;entryX=0;entryY=0.5;entryDx=0;entryDy=0;" parent="1" source="MfplE-wGYaaptmmhJZ9_-98" target="MfplE-wGYaaptmmhJZ9_-119" edge="1">
          <mxGeometry width="50" height="50" relative="1" as="geometry">
            <mxPoint x="560" y="820" as="sourcePoint" />
            <mxPoint x="610" y="770" as="targetPoint" />
          </mxGeometry>
        </mxCell>
        <mxCell id="MfplE-wGYaaptmmhJZ9_-122" value="&lt;font style=&quot;font-size: 38px;&quot;&gt;&quot;.&quot;&lt;/font&gt;" style="text;html=1;align=center;verticalAlign=middle;whiteSpace=wrap;rounded=0;" parent="1" vertex="1">
          <mxGeometry x="380" y="560" width="120" height="30" as="geometry" />
        </mxCell>
        <mxCell id="MfplE-wGYaaptmmhJZ9_-125" value="" style="endArrow=classic;html=1;rounded=0;exitX=0.922;exitY=0.718;exitDx=0;exitDy=0;exitPerimeter=0;entryX=0.078;entryY=0.789;entryDx=0;entryDy=0;entryPerimeter=0;" parent="1" source="MfplE-wGYaaptmmhJZ9_-98" target="MfplE-wGYaaptmmhJZ9_-4" edge="1">
          <mxGeometry width="50" height="50" relative="1" as="geometry">
            <mxPoint x="510" y="850" as="sourcePoint" />
            <mxPoint x="1220" y="140" as="targetPoint" />
            <Array as="points">
              <mxPoint x="630" y="780" />
              <mxPoint x="1090" y="530" />
              <mxPoint x="1200" y="290" />
            </Array>
          </mxGeometry>
        </mxCell>
        <mxCell id="MfplE-wGYaaptmmhJZ9_-126" value="&lt;font style=&quot;font-size: 24px;&quot;&gt;C - {d, &#39;.&#39;}&lt;/font&gt;" style="text;html=1;align=center;verticalAlign=middle;whiteSpace=wrap;rounded=0;" parent="1" vertex="1">
          <mxGeometry x="835" y="570" width="120" height="30" as="geometry" />
        </mxCell>
        <mxCell id="MfplE-wGYaaptmmhJZ9_-130" value="&lt;div style=&quot;font-size: 18px;&quot;&gt;&lt;font style=&quot;font-size: 18px;&quot;&gt;&lt;b style=&quot;&quot;&gt;chequearRangoFloat()&lt;/b&gt;&lt;/font&gt;&lt;/div&gt;&lt;font style=&quot;font-size: 18px;&quot;&gt;&lt;b&gt;generarToken()&lt;/b&gt;&lt;/font&gt;&lt;div style=&quot;font-size: 18px;&quot;&gt;&lt;font style=&quot;font-size: 18px;&quot;&gt;&lt;b style=&quot;&quot;&gt;resetear()&lt;/b&gt;&lt;/font&gt;&lt;/div&gt;" style="text;html=1;align=center;verticalAlign=middle;whiteSpace=wrap;rounded=0;" parent="1" vertex="1">
          <mxGeometry x="1276" y="585" width="60" height="30" as="geometry" />
        </mxCell>
        <mxCell id="MfplE-wGYaaptmmhJZ9_-133" value="&lt;font style=&quot;font-size: 24px;&quot;&gt;C - {d}&lt;/font&gt;" style="text;html=1;align=center;verticalAlign=middle;whiteSpace=wrap;rounded=0;" parent="1" vertex="1">
          <mxGeometry x="710" y="480" width="120" height="30" as="geometry" />
        </mxCell>
        <mxCell id="MfplE-wGYaaptmmhJZ9_-136" value="&lt;b style=&quot;&quot;&gt;&lt;font style=&quot;font-size: 18px;&quot;&gt;error()&lt;/font&gt;&lt;/b&gt;" style="text;html=1;align=center;verticalAlign=middle;whiteSpace=wrap;rounded=0;" parent="1" vertex="1">
          <mxGeometry x="700" y="510" width="60" height="30" as="geometry" />
        </mxCell>
        <mxCell id="MfplE-wGYaaptmmhJZ9_-142" value="&lt;span style=&quot;font-size: 24px;&quot;&gt;7&lt;/span&gt;" style="ellipse;whiteSpace=wrap;html=1;aspect=fixed;" parent="1" vertex="1">
          <mxGeometry x="455" y="870" width="100" height="100" as="geometry" />
        </mxCell>
        <mxCell id="MfplE-wGYaaptmmhJZ9_-143" value="&lt;span style=&quot;font-size: 24px;&quot;&gt;8&lt;/span&gt;" style="ellipse;whiteSpace=wrap;html=1;aspect=fixed;" parent="1" vertex="1">
          <mxGeometry x="835" y="880" width="100" height="100" as="geometry" />
        </mxCell>
        <mxCell id="MfplE-wGYaaptmmhJZ9_-144" value="&lt;span style=&quot;font-size: 24px;&quot;&gt;9&lt;/span&gt;" style="ellipse;whiteSpace=wrap;html=1;aspect=fixed;" parent="1" vertex="1">
          <mxGeometry x="1225" y="710" width="100" height="100" as="geometry" />
        </mxCell>
        <mxCell id="MfplE-wGYaaptmmhJZ9_-145" value="" style="endArrow=classic;html=1;rounded=0;exitX=0.357;exitY=0.999;exitDx=0;exitDy=0;exitPerimeter=0;entryX=0.602;entryY=0.023;entryDx=0;entryDy=0;entryPerimeter=0;" parent="1" source="MfplE-wGYaaptmmhJZ9_-119" target="MfplE-wGYaaptmmhJZ9_-142" edge="1">
          <mxGeometry width="50" height="50" relative="1" as="geometry">
            <mxPoint x="580" y="880" as="sourcePoint" />
            <mxPoint x="630" y="830" as="targetPoint" />
          </mxGeometry>
        </mxCell>
        <mxCell id="MfplE-wGYaaptmmhJZ9_-148" value="&lt;font style=&quot;font-size: 24px;&quot;&gt;d&lt;/font&gt;" style="text;html=1;align=center;verticalAlign=middle;whiteSpace=wrap;rounded=0;" parent="1" vertex="1">
          <mxGeometry x="476" y="771" width="120" height="30" as="geometry" />
        </mxCell>
        <mxCell id="MfplE-wGYaaptmmhJZ9_-149" value="" style="endArrow=classic;html=1;rounded=0;exitX=0;exitY=1;exitDx=0;exitDy=0;entryX=0.759;entryY=0.94;entryDx=0;entryDy=0;entryPerimeter=0;" parent="1" source="MfplE-wGYaaptmmhJZ9_-142" target="MfplE-wGYaaptmmhJZ9_-142" edge="1">
          <mxGeometry width="50" height="50" relative="1" as="geometry">
            <mxPoint x="450" y="1110" as="sourcePoint" />
            <mxPoint x="520" y="1020" as="targetPoint" />
            <Array as="points">
              <mxPoint x="480" y="1010" />
            </Array>
          </mxGeometry>
        </mxCell>
        <mxCell id="MfplE-wGYaaptmmhJZ9_-151" value="&lt;font style=&quot;font-size: 24px;&quot;&gt;d&lt;/font&gt;" style="text;html=1;align=center;verticalAlign=middle;whiteSpace=wrap;rounded=0;" parent="1" vertex="1">
          <mxGeometry x="416" y="1011" width="120" height="30" as="geometry" />
        </mxCell>
        <mxCell id="MfplE-wGYaaptmmhJZ9_-155" value="&lt;font style=&quot;font-size: 24px;&quot;&gt;&quot;s&quot;&lt;/font&gt;" style="text;html=1;align=center;verticalAlign=middle;whiteSpace=wrap;rounded=0;" parent="1" vertex="1">
          <mxGeometry x="656" y="841" width="120" height="30" as="geometry" />
        </mxCell>
        <mxCell id="MfplE-wGYaaptmmhJZ9_-156" value="" style="endArrow=classic;html=1;rounded=0;exitX=0.97;exitY=0.313;exitDx=0;exitDy=0;exitPerimeter=0;entryX=0;entryY=0;entryDx=0;entryDy=0;" parent="1" source="MfplE-wGYaaptmmhJZ9_-142" target="MfplE-wGYaaptmmhJZ9_-143" edge="1">
          <mxGeometry width="50" height="50" relative="1" as="geometry">
            <mxPoint x="690" y="970" as="sourcePoint" />
            <mxPoint x="800" y="800" as="targetPoint" />
          </mxGeometry>
        </mxCell>
        <mxCell id="MfplE-wGYaaptmmhJZ9_-157" value="" style="endArrow=classic;html=1;rounded=0;exitX=0.947;exitY=0.752;exitDx=0;exitDy=0;exitPerimeter=0;entryX=0.5;entryY=1;entryDx=0;entryDy=0;" parent="1" source="MfplE-wGYaaptmmhJZ9_-142" target="MfplE-wGYaaptmmhJZ9_-4" edge="1">
          <mxGeometry width="50" height="50" relative="1" as="geometry">
            <mxPoint x="710" y="1010" as="sourcePoint" />
            <mxPoint x="1627.0588235294117" y="110" as="targetPoint" />
            <Array as="points">
              <mxPoint x="910" y="1060" />
              <mxPoint x="1420" y="1060" />
              <mxPoint x="1500" y="580" />
            </Array>
          </mxGeometry>
        </mxCell>
        <mxCell id="MfplE-wGYaaptmmhJZ9_-160" value="&lt;font style=&quot;font-size: 24px;&quot;&gt;C - {&quot;s&quot;}&lt;/font&gt;" style="text;html=1;align=center;verticalAlign=middle;whiteSpace=wrap;rounded=0;" parent="1" vertex="1">
          <mxGeometry x="1126" y="1001" width="120" height="30" as="geometry" />
        </mxCell>
        <mxCell id="MfplE-wGYaaptmmhJZ9_-166" value="" style="endArrow=classic;html=1;rounded=0;exitX=1;exitY=0.5;exitDx=0;exitDy=0;entryX=0;entryY=1;entryDx=0;entryDy=0;" parent="1" source="MfplE-wGYaaptmmhJZ9_-143" target="MfplE-wGYaaptmmhJZ9_-144" edge="1">
          <mxGeometry width="50" height="50" relative="1" as="geometry">
            <mxPoint x="990" y="930" as="sourcePoint" />
            <mxPoint x="1040" y="880" as="targetPoint" />
          </mxGeometry>
        </mxCell>
        <mxCell id="MfplE-wGYaaptmmhJZ9_-168" value="&lt;font style=&quot;font-size: 24px;&quot;&gt;+, -&lt;/font&gt;" style="text;html=1;align=center;verticalAlign=middle;whiteSpace=wrap;rounded=0;" parent="1" vertex="1">
          <mxGeometry x="1016" y="811" width="120" height="30" as="geometry" />
        </mxCell>
        <mxCell id="MfplE-wGYaaptmmhJZ9_-169" value="" style="endArrow=classic;html=1;rounded=0;exitX=0.5;exitY=1;exitDx=0;exitDy=0;entryX=0.956;entryY=0.762;entryDx=0;entryDy=0;entryPerimeter=0;" parent="1" source="MfplE-wGYaaptmmhJZ9_-144" target="MfplE-wGYaaptmmhJZ9_-144" edge="1">
          <mxGeometry width="50" height="50" relative="1" as="geometry">
            <mxPoint x="1290" y="860" as="sourcePoint" />
            <mxPoint x="1340" y="810" as="targetPoint" />
            <Array as="points">
              <mxPoint x="1310" y="830" />
            </Array>
          </mxGeometry>
        </mxCell>
        <mxCell id="MfplE-wGYaaptmmhJZ9_-171" value="&lt;font style=&quot;font-size: 24px;&quot;&gt;d&lt;/font&gt;" style="text;html=1;align=center;verticalAlign=middle;whiteSpace=wrap;rounded=0;" parent="1" vertex="1">
          <mxGeometry x="1246" y="811" width="120" height="30" as="geometry" />
        </mxCell>
        <mxCell id="MfplE-wGYaaptmmhJZ9_-172" value="" style="endArrow=classic;html=1;rounded=0;exitX=0.5;exitY=0;exitDx=0;exitDy=0;entryX=0.336;entryY=0.965;entryDx=0;entryDy=0;entryPerimeter=0;" parent="1" source="MfplE-wGYaaptmmhJZ9_-144" target="MfplE-wGYaaptmmhJZ9_-4" edge="1">
          <mxGeometry width="50" height="50" relative="1" as="geometry">
            <mxPoint x="1280" y="680" as="sourcePoint" />
            <mxPoint x="2070" y="180" as="targetPoint" />
            <Array as="points">
              <mxPoint x="1310" y="540" />
            </Array>
          </mxGeometry>
        </mxCell>
        <mxCell id="MfplE-wGYaaptmmhJZ9_-173" value="&lt;font style=&quot;font-size: 24px;&quot;&gt;C - {d}&lt;/font&gt;" style="text;html=1;align=center;verticalAlign=middle;whiteSpace=wrap;rounded=0;" parent="1" vertex="1">
          <mxGeometry x="1230" y="650" width="120" height="30" as="geometry" />
        </mxCell>
        <mxCell id="MfplE-wGYaaptmmhJZ9_-174" value="&lt;div style=&quot;font-size: 18px;&quot;&gt;&lt;font style=&quot;font-size: 18px;&quot;&gt;&lt;b style=&quot;&quot;&gt;chequearRangoEnt()&lt;/b&gt;&lt;/font&gt;&lt;/div&gt;&lt;font style=&quot;font-size: 18px;&quot;&gt;&lt;b&gt;generarToken()&lt;/b&gt;&lt;/font&gt;&lt;div style=&quot;font-size: 18px;&quot;&gt;&lt;font style=&quot;font-size: 18px;&quot;&gt;&lt;b style=&quot;&quot;&gt;resetear()&lt;/b&gt;&lt;/font&gt;&lt;/div&gt;" style="text;html=1;align=center;verticalAlign=middle;whiteSpace=wrap;rounded=0;" parent="1" vertex="1">
          <mxGeometry x="1025" y="545" width="60" height="30" as="geometry" />
        </mxCell>
        <mxCell id="MfplE-wGYaaptmmhJZ9_-176" value="&lt;span style=&quot;font-size: 24px;&quot;&gt;10&lt;/span&gt;" style="ellipse;whiteSpace=wrap;html=1;aspect=fixed;" parent="1" vertex="1">
          <mxGeometry x="215" y="1130" width="100" height="100" as="geometry" />
        </mxCell>
        <mxCell id="MfplE-wGYaaptmmhJZ9_-177" value="" style="endArrow=classic;html=1;rounded=0;exitX=0;exitY=1;exitDx=0;exitDy=0;" parent="1" source="MfplE-wGYaaptmmhJZ9_-1" edge="1">
          <mxGeometry width="50" height="50" relative="1" as="geometry">
            <mxPoint y="950" as="sourcePoint" />
            <mxPoint x="250" y="1130" as="targetPoint" />
            <Array as="points">
              <mxPoint x="80" y="670" />
            </Array>
          </mxGeometry>
        </mxCell>
        <mxCell id="MfplE-wGYaaptmmhJZ9_-179" value="" style="endArrow=classic;html=1;rounded=0;exitX=0;exitY=1;exitDx=0;exitDy=0;" parent="1" source="MfplE-wGYaaptmmhJZ9_-1" edge="1">
          <mxGeometry width="50" height="50" relative="1" as="geometry">
            <mxPoint x="-160" y="160" as="sourcePoint" />
            <mxPoint x="40" y="110" as="targetPoint" />
            <Array as="points">
              <mxPoint x="-70" y="140" />
            </Array>
          </mxGeometry>
        </mxCell>
        <mxCell id="MfplE-wGYaaptmmhJZ9_-180" value="&lt;span style=&quot;font-size: 24px;&quot;&gt;/n, /r&lt;/span&gt;" style="text;html=1;align=center;verticalAlign=middle;resizable=0;points=[];autosize=1;strokeColor=none;fillColor=none;" parent="1" vertex="1">
          <mxGeometry x="-155" y="110" width="70" height="40" as="geometry" />
        </mxCell>
        <mxCell id="MfplE-wGYaaptmmhJZ9_-181" value="&lt;b&gt;sumarLinea o ignorar&lt;/b&gt;" style="text;html=1;align=center;verticalAlign=middle;resizable=0;points=[];autosize=1;strokeColor=none;fillColor=none;rotation=0;" parent="1" vertex="1">
          <mxGeometry x="-190" y="140" width="150" height="30" as="geometry" />
        </mxCell>
        <mxCell id="MfplE-wGYaaptmmhJZ9_-182" value="&lt;span style=&quot;font-size: 24px;&quot;&gt;&quot;0&quot;&lt;/span&gt;" style="text;html=1;align=center;verticalAlign=middle;resizable=0;points=[];autosize=1;strokeColor=none;fillColor=none;" parent="1" vertex="1">
          <mxGeometry x="5" y="661" width="50" height="40" as="geometry" />
        </mxCell>
        <mxCell id="MfplE-wGYaaptmmhJZ9_-184" value="&lt;span style=&quot;font-size: 24px;&quot;&gt;11&lt;/span&gt;" style="ellipse;whiteSpace=wrap;html=1;aspect=fixed;" parent="1" vertex="1">
          <mxGeometry x="620" y="1180" width="100" height="100" as="geometry" />
        </mxCell>
        <mxCell id="MfplE-wGYaaptmmhJZ9_-185" value="" style="endArrow=classic;html=1;rounded=0;entryX=0;entryY=0.5;entryDx=0;entryDy=0;exitX=1;exitY=0.5;exitDx=0;exitDy=0;" parent="1" source="MfplE-wGYaaptmmhJZ9_-176" target="MfplE-wGYaaptmmhJZ9_-184" edge="1">
          <mxGeometry width="50" height="50" relative="1" as="geometry">
            <mxPoint x="300" y="1300" as="sourcePoint" />
            <mxPoint x="350" y="1250" as="targetPoint" />
          </mxGeometry>
        </mxCell>
        <mxCell id="MfplE-wGYaaptmmhJZ9_-187" value="&lt;font style=&quot;font-size: 24px;&quot;&gt;&quot;x&quot;&lt;/font&gt;" style="text;html=1;align=center;verticalAlign=middle;whiteSpace=wrap;rounded=0;" parent="1" vertex="1">
          <mxGeometry x="406" y="1171" width="120" height="30" as="geometry" />
        </mxCell>
        <mxCell id="MfplE-wGYaaptmmhJZ9_-189" value="" style="endArrow=classic;html=1;rounded=0;entryX=1;entryY=1;entryDx=0;entryDy=0;exitX=0;exitY=1;exitDx=0;exitDy=0;" parent="1" source="MfplE-wGYaaptmmhJZ9_-184" target="MfplE-wGYaaptmmhJZ9_-184" edge="1">
          <mxGeometry width="50" height="50" relative="1" as="geometry">
            <mxPoint x="610" y="1290" as="sourcePoint" />
            <mxPoint x="760" y="1340" as="targetPoint" />
            <Array as="points">
              <mxPoint x="650" y="1340" />
            </Array>
          </mxGeometry>
        </mxCell>
        <mxCell id="MfplE-wGYaaptmmhJZ9_-190" value="&lt;font size=&quot;1&quot; style=&quot;&quot;&gt;&lt;b style=&quot;font-size: 18px;&quot;&gt;concatenar()&lt;/b&gt;&lt;/font&gt;" style="text;html=1;align=center;verticalAlign=middle;whiteSpace=wrap;rounded=0;" parent="1" vertex="1">
          <mxGeometry x="620" y="1370" width="60" height="30" as="geometry" />
        </mxCell>
        <mxCell id="MfplE-wGYaaptmmhJZ9_-191" value="&lt;font style=&quot;font-size: 24px;&quot;&gt;d, L(A-F)&lt;/font&gt;" style="text;html=1;align=center;verticalAlign=middle;whiteSpace=wrap;rounded=0;" parent="1" vertex="1">
          <mxGeometry x="586" y="1341" width="120" height="30" as="geometry" />
        </mxCell>
        <mxCell id="MfplE-wGYaaptmmhJZ9_-192" value="" style="endArrow=classic;html=1;rounded=0;exitX=1;exitY=0.5;exitDx=0;exitDy=0;entryX=0.741;entryY=1.015;entryDx=0;entryDy=0;entryPerimeter=0;" parent="1" source="MfplE-wGYaaptmmhJZ9_-184" target="MfplE-wGYaaptmmhJZ9_-4" edge="1">
          <mxGeometry width="50" height="50" relative="1" as="geometry">
            <mxPoint x="850" y="1310" as="sourcePoint" />
            <mxPoint x="2140" y="220" as="targetPoint" />
            <Array as="points">
              <mxPoint x="1570" y="1220" />
            </Array>
          </mxGeometry>
        </mxCell>
        <mxCell id="MfplE-wGYaaptmmhJZ9_-193" value="&lt;font style=&quot;font-size: 24px;&quot;&gt;C - {d, L(A-F)}&lt;/font&gt;" style="text;html=1;align=center;verticalAlign=middle;whiteSpace=wrap;rounded=0;" parent="1" vertex="1">
          <mxGeometry x="1126" y="1169" width="174" height="30" as="geometry" />
        </mxCell>
        <mxCell id="MfplE-wGYaaptmmhJZ9_-194" value="&lt;font style=&quot;font-size: 18px;&quot;&gt;&lt;b style=&quot;&quot;&gt;generarToken()&lt;/b&gt;&lt;/font&gt;&lt;div style=&quot;font-size: 18px;&quot;&gt;&lt;font style=&quot;font-size: 18px;&quot;&gt;&lt;b style=&quot;&quot;&gt;resetear()&lt;/b&gt;&lt;/font&gt;&lt;/div&gt;" style="text;html=1;align=center;verticalAlign=middle;whiteSpace=wrap;rounded=0;" parent="1" vertex="1">
          <mxGeometry x="1186" y="1240" width="60" height="30" as="geometry" />
        </mxCell>
        <mxCell id="MfplE-wGYaaptmmhJZ9_-195" value="&lt;span style=&quot;font-size: 24px;&quot;&gt;12&lt;/span&gt;" style="ellipse;whiteSpace=wrap;html=1;aspect=fixed;" parent="1" vertex="1">
          <mxGeometry x="146" y="1550" width="100" height="100" as="geometry" />
        </mxCell>
        <mxCell id="MfplE-wGYaaptmmhJZ9_-196" value="&lt;span style=&quot;font-size: 24px;&quot;&gt;13&lt;/span&gt;" style="ellipse;whiteSpace=wrap;html=1;aspect=fixed;" parent="1" vertex="1">
          <mxGeometry x="650" y="1570" width="100" height="100" as="geometry" />
        </mxCell>
        <mxCell id="MfplE-wGYaaptmmhJZ9_-198" value="&lt;span style=&quot;font-size: 24px;&quot;&gt;14&lt;/span&gt;" style="ellipse;whiteSpace=wrap;html=1;aspect=fixed;" parent="1" vertex="1">
          <mxGeometry x="1210" y="1550" width="100" height="100" as="geometry" />
        </mxCell>
        <mxCell id="MfplE-wGYaaptmmhJZ9_-200" value="" style="endArrow=classic;html=1;rounded=0;exitX=0;exitY=1;exitDx=0;exitDy=0;entryX=0;entryY=0;entryDx=0;entryDy=0;" parent="1" source="MfplE-wGYaaptmmhJZ9_-1" target="MfplE-wGYaaptmmhJZ9_-195" edge="1">
          <mxGeometry width="50" height="50" relative="1" as="geometry">
            <mxPoint x="-350" y="600" as="sourcePoint" />
            <mxPoint x="-120" y="1040" as="targetPoint" />
            <Array as="points">
              <mxPoint x="-130" y="640" />
            </Array>
          </mxGeometry>
        </mxCell>
        <mxCell id="MfplE-wGYaaptmmhJZ9_-201" value="&lt;span style=&quot;font-size: 24px;&quot;&gt;&quot;/&quot;&lt;/span&gt;" style="text;html=1;align=center;verticalAlign=middle;resizable=0;points=[];autosize=1;strokeColor=none;fillColor=none;" parent="1" vertex="1">
          <mxGeometry x="-195" y="671" width="50" height="40" as="geometry" />
        </mxCell>
        <mxCell id="MfplE-wGYaaptmmhJZ9_-202" value="&lt;span style=&quot;font-size: 24px;&quot;&gt;&lt;b&gt;ignorar()&lt;/b&gt;&lt;/span&gt;" style="text;html=1;align=center;verticalAlign=middle;whiteSpace=wrap;rounded=0;" parent="1" vertex="1">
          <mxGeometry x="-201" y="730" width="60" height="30" as="geometry" />
        </mxCell>
        <mxCell id="MfplE-wGYaaptmmhJZ9_-203" value="" style="endArrow=classic;html=1;rounded=0;exitX=1;exitY=0.5;exitDx=0;exitDy=0;entryX=0;entryY=0.5;entryDx=0;entryDy=0;" parent="1" source="MfplE-wGYaaptmmhJZ9_-195" target="MfplE-wGYaaptmmhJZ9_-196" edge="1">
          <mxGeometry width="50" height="50" relative="1" as="geometry">
            <mxPoint x="430" y="1700" as="sourcePoint" />
            <mxPoint x="480" y="1650" as="targetPoint" />
          </mxGeometry>
        </mxCell>
        <mxCell id="MfplE-wGYaaptmmhJZ9_-210" value="&lt;font style=&quot;font-size: 24px;&quot;&gt;&quot;#&quot;&lt;/font&gt;" style="text;html=1;align=center;verticalAlign=middle;whiteSpace=wrap;rounded=0;" parent="1" vertex="1">
          <mxGeometry x="386" y="1541" width="120" height="30" as="geometry" />
        </mxCell>
        <mxCell id="MfplE-wGYaaptmmhJZ9_-212" value="&lt;font style=&quot;font-size: 24px;&quot;&gt;&quot;#&quot;&lt;/font&gt;" style="text;html=1;align=center;verticalAlign=middle;whiteSpace=wrap;rounded=0;" parent="1" vertex="1">
          <mxGeometry x="960" y="1541" width="120" height="30" as="geometry" />
        </mxCell>
        <mxCell id="MfplE-wGYaaptmmhJZ9_-213" value="" style="endArrow=classic;html=1;rounded=0;exitX=0.992;exitY=0.584;exitDx=0;exitDy=0;exitPerimeter=0;entryX=0.031;entryY=0.608;entryDx=0;entryDy=0;entryPerimeter=0;" parent="1" source="MfplE-wGYaaptmmhJZ9_-196" target="MfplE-wGYaaptmmhJZ9_-198" edge="1">
          <mxGeometry width="50" height="50" relative="1" as="geometry">
            <mxPoint x="820" y="1700" as="sourcePoint" />
            <mxPoint x="870" y="1650" as="targetPoint" />
          </mxGeometry>
        </mxCell>
        <mxCell id="MfplE-wGYaaptmmhJZ9_-214" value="" style="endArrow=classic;html=1;rounded=0;exitX=0;exitY=1;exitDx=0;exitDy=0;entryX=1.02;entryY=0.787;entryDx=0;entryDy=0;entryPerimeter=0;" parent="1" source="MfplE-wGYaaptmmhJZ9_-196" target="MfplE-wGYaaptmmhJZ9_-196" edge="1">
          <mxGeometry width="50" height="50" relative="1" as="geometry">
            <mxPoint x="760" y="1800" as="sourcePoint" />
            <mxPoint x="810" y="1750" as="targetPoint" />
            <Array as="points">
              <mxPoint x="700" y="1710" />
            </Array>
          </mxGeometry>
        </mxCell>
        <mxCell id="MfplE-wGYaaptmmhJZ9_-215" value="&lt;font size=&quot;1&quot; style=&quot;&quot;&gt;&lt;b style=&quot;font-size: 18px;&quot;&gt;ignorar()&lt;/b&gt;&lt;/font&gt;" style="text;html=1;align=center;verticalAlign=middle;whiteSpace=wrap;rounded=0;" parent="1" vertex="1">
          <mxGeometry x="680" y="1740" width="60" height="30" as="geometry" />
        </mxCell>
        <mxCell id="MfplE-wGYaaptmmhJZ9_-216" value="&lt;font style=&quot;font-size: 24px;&quot;&gt;C - {#}&lt;/font&gt;" style="text;html=1;align=center;verticalAlign=middle;whiteSpace=wrap;rounded=0;" parent="1" vertex="1">
          <mxGeometry x="646" y="1711" width="120" height="30" as="geometry" />
        </mxCell>
        <mxCell id="MfplE-wGYaaptmmhJZ9_-217" value="" style="endArrow=classic;html=1;rounded=0;exitX=1;exitY=0.5;exitDx=0;exitDy=0;" parent="1" source="MfplE-wGYaaptmmhJZ9_-198" edge="1">
          <mxGeometry width="50" height="50" relative="1" as="geometry">
            <mxPoint x="1420" y="1580" as="sourcePoint" />
            <mxPoint x="2150" y="160" as="targetPoint" />
            <Array as="points">
              <mxPoint x="1890" y="1200" />
              <mxPoint x="2220" y="300" />
            </Array>
          </mxGeometry>
        </mxCell>
        <mxCell id="MfplE-wGYaaptmmhJZ9_-218" value="&lt;font size=&quot;1&quot; style=&quot;&quot;&gt;&lt;b style=&quot;font-size: 18px;&quot;&gt;reconocerComentario()&lt;/b&gt;&lt;/font&gt;" style="text;html=1;align=center;verticalAlign=middle;whiteSpace=wrap;rounded=0;" parent="1" vertex="1">
          <mxGeometry x="1670" y="1420" width="60" height="30" as="geometry" />
        </mxCell>
        <mxCell id="MfplE-wGYaaptmmhJZ9_-219" value="&lt;font style=&quot;font-size: 24px;&quot;&gt;&quot;/&quot;&lt;/font&gt;" style="text;html=1;align=center;verticalAlign=middle;whiteSpace=wrap;rounded=0;" parent="1" vertex="1">
          <mxGeometry x="1636" y="1391" width="120" height="30" as="geometry" />
        </mxCell>
        <mxCell id="BUix4ScK4Ffc1S51OZYv-1" value="" style="endArrow=classic;html=1;rounded=0;exitX=0.5;exitY=1;exitDx=0;exitDy=0;entryX=1;entryY=1;entryDx=0;entryDy=0;" parent="1" source="MfplE-wGYaaptmmhJZ9_-176" target="MfplE-wGYaaptmmhJZ9_-4" edge="1">
          <mxGeometry width="50" height="50" relative="1" as="geometry">
            <mxPoint x="450" y="1418.8235294117646" as="sourcePoint" />
            <mxPoint x="2150" y="260" as="targetPoint" />
            <Array as="points">
              <mxPoint x="460" y="1460" />
              <mxPoint x="1260" y="1470" />
              <mxPoint x="1780" y="1180" />
              <mxPoint x="2170" y="290" />
            </Array>
          </mxGeometry>
        </mxCell>
        <mxCell id="BUix4ScK4Ffc1S51OZYv-5" value="&lt;font style=&quot;font-size: 24px;&quot;&gt;C - {&quot;x&quot;}&lt;/font&gt;" style="text;html=1;align=center;verticalAlign=middle;whiteSpace=wrap;rounded=0;" parent="1" vertex="1">
          <mxGeometry x="236" y="1360" width="174" height="30" as="geometry" />
        </mxCell>
        <mxCell id="BUix4ScK4Ffc1S51OZYv-9" value="&lt;font style=&quot;font-size: 18px;&quot;&gt;&lt;b style=&quot;&quot;&gt;generarToken()&lt;/b&gt;&lt;/font&gt;&lt;div style=&quot;font-size: 18px;&quot;&gt;&lt;font style=&quot;font-size: 18px;&quot;&gt;&lt;b style=&quot;&quot;&gt;resetear()&lt;/b&gt;&lt;/font&gt;&lt;/div&gt;" style="text;html=1;align=center;verticalAlign=middle;whiteSpace=wrap;rounded=0;" parent="1" vertex="1">
          <mxGeometry x="310" y="1400" width="60" height="30" as="geometry" />
        </mxCell>
        <mxCell id="BUix4ScK4Ffc1S51OZYv-12" value="&lt;font size=&quot;1&quot; style=&quot;&quot;&gt;&lt;b style=&quot;font-size: 18px;&quot;&gt;concatenar()&lt;/b&gt;&lt;/font&gt;" style="text;html=1;align=center;verticalAlign=middle;whiteSpace=wrap;rounded=0;" parent="1" vertex="1">
          <mxGeometry x="420" y="1201" width="60" height="30" as="geometry" />
        </mxCell>
        <mxCell id="BUix4ScK4Ffc1S51OZYv-14" value="&lt;font size=&quot;1&quot; style=&quot;&quot;&gt;&lt;b style=&quot;font-size: 18px;&quot;&gt;concatenar()&lt;/b&gt;&lt;/font&gt;" style="text;html=1;align=center;verticalAlign=middle;whiteSpace=wrap;rounded=0;" parent="1" vertex="1">
          <mxGeometry x="455" y="1031" width="60" height="30" as="geometry" />
        </mxCell>
        <mxCell id="BUix4ScK4Ffc1S51OZYv-15" value="&lt;font size=&quot;1&quot; style=&quot;&quot;&gt;&lt;b style=&quot;font-size: 18px;&quot;&gt;concatenar()&lt;/b&gt;&lt;/font&gt;" style="text;html=1;align=center;verticalAlign=middle;whiteSpace=wrap;rounded=0;" parent="1" vertex="1">
          <mxGeometry x="506" y="790" width="60" height="30" as="geometry" />
        </mxCell>
        <mxCell id="BUix4ScK4Ffc1S51OZYv-17" value="&lt;font size=&quot;1&quot; style=&quot;&quot;&gt;&lt;b style=&quot;font-size: 18px;&quot;&gt;concatenar()&lt;/b&gt;&lt;/font&gt;" style="text;html=1;align=center;verticalAlign=middle;whiteSpace=wrap;rounded=0;" parent="1" vertex="1">
          <mxGeometry x="276" y="731" width="60" height="30" as="geometry" />
        </mxCell>
        <mxCell id="BUix4ScK4Ffc1S51OZYv-18" value="&lt;font size=&quot;1&quot; style=&quot;&quot;&gt;&lt;b style=&quot;font-size: 18px;&quot;&gt;concatenar()&lt;/b&gt;&lt;/font&gt;" style="text;html=1;align=center;verticalAlign=middle;whiteSpace=wrap;rounded=0;" parent="1" vertex="1">
          <mxGeometry x="414" y="590" width="60" height="30" as="geometry" />
        </mxCell>
        <mxCell id="BUix4ScK4Ffc1S51OZYv-19" value="&lt;font size=&quot;1&quot; style=&quot;&quot;&gt;&lt;b style=&quot;font-size: 18px;&quot;&gt;concatenar()&lt;/b&gt;&lt;/font&gt;" style="text;html=1;align=center;verticalAlign=middle;whiteSpace=wrap;rounded=0;" parent="1" vertex="1">
          <mxGeometry x="166" y="490" width="60" height="30" as="geometry" />
        </mxCell>
        <mxCell id="BUix4ScK4Ffc1S51OZYv-20" value="&lt;font size=&quot;1&quot; style=&quot;&quot;&gt;&lt;b style=&quot;font-size: 18px;&quot;&gt;concatenar()&lt;/b&gt;&lt;/font&gt;" style="text;html=1;align=center;verticalAlign=middle;whiteSpace=wrap;rounded=0;" parent="1" vertex="1">
          <mxGeometry x="10" y="700" width="60" height="30" as="geometry" />
        </mxCell>
        <mxCell id="BUix4ScK4Ffc1S51OZYv-21" value="&lt;font size=&quot;1&quot; style=&quot;&quot;&gt;&lt;b style=&quot;font-size: 18px;&quot;&gt;concatenar()&lt;/b&gt;&lt;/font&gt;" style="text;html=1;align=center;verticalAlign=middle;whiteSpace=wrap;rounded=0;" parent="1" vertex="1">
          <mxGeometry x="686" y="871" width="60" height="30" as="geometry" />
        </mxCell>
        <mxCell id="BUix4ScK4Ffc1S51OZYv-22" value="&lt;font size=&quot;1&quot; style=&quot;&quot;&gt;&lt;b style=&quot;font-size: 18px;&quot;&gt;concatenar()&lt;/b&gt;&lt;/font&gt;" style="text;html=1;align=center;verticalAlign=middle;whiteSpace=wrap;rounded=0;" parent="1" vertex="1">
          <mxGeometry x="1046" y="840" width="60" height="30" as="geometry" />
        </mxCell>
        <mxCell id="BUix4ScK4Ffc1S51OZYv-24" value="&lt;font size=&quot;1&quot; style=&quot;&quot;&gt;&lt;b style=&quot;font-size: 18px;&quot;&gt;concatenar()&lt;/b&gt;&lt;/font&gt;" style="text;html=1;align=center;verticalAlign=middle;whiteSpace=wrap;rounded=0;" parent="1" vertex="1">
          <mxGeometry x="1280" y="840" width="60" height="30" as="geometry" />
        </mxCell>
        <mxCell id="BUix4ScK4Ffc1S51OZYv-33" value="&lt;font style=&quot;font-size: 18px;&quot;&gt;&lt;b style=&quot;&quot;&gt;generarToken()&lt;/b&gt;&lt;/font&gt;&lt;div style=&quot;font-size: 18px;&quot;&gt;&lt;font style=&quot;font-size: 18px;&quot;&gt;&lt;b style=&quot;&quot;&gt;resetear()&lt;/b&gt;&lt;/font&gt;&lt;/div&gt;" style="text;html=1;align=center;verticalAlign=middle;whiteSpace=wrap;rounded=0;" parent="1" vertex="1">
          <mxGeometry x="1170" y="1070" width="60" height="30" as="geometry" />
        </mxCell>
        <mxCell id="BUix4ScK4Ffc1S51OZYv-35" value="&lt;font size=&quot;1&quot; style=&quot;&quot;&gt;&lt;b style=&quot;font-size: 18px;&quot;&gt;ignorar()&lt;/b&gt;&lt;/font&gt;" style="text;html=1;align=center;verticalAlign=middle;whiteSpace=wrap;rounded=0;" parent="1" vertex="1">
          <mxGeometry x="1000" y="1571" width="60" height="30" as="geometry" />
        </mxCell>
        <mxCell id="BUix4ScK4Ffc1S51OZYv-38" value="&lt;font size=&quot;1&quot; style=&quot;&quot;&gt;&lt;b style=&quot;font-size: 18px;&quot;&gt;ignorar()&lt;/b&gt;&lt;/font&gt;" style="text;html=1;align=center;verticalAlign=middle;whiteSpace=wrap;rounded=0;" parent="1" vertex="1">
          <mxGeometry x="414" y="1571" width="60" height="30" as="geometry" />
        </mxCell>
        <mxCell id="AqgshkSy5Ium3Ee_vgH5-1" value="&lt;font style=&quot;font-size: 24px;&quot;&gt;C - {&quot;#&quot;}&lt;/font&gt;" style="text;html=1;align=center;verticalAlign=middle;whiteSpace=wrap;rounded=0;" parent="1" vertex="1">
          <mxGeometry x="160" y="1711" width="174" height="30" as="geometry" />
        </mxCell>
        <mxCell id="AqgshkSy5Ium3Ee_vgH5-2" value="&lt;font style=&quot;font-size: 18px;&quot;&gt;&lt;b style=&quot;&quot;&gt;generarToken()&lt;/b&gt;&lt;/font&gt;&lt;div style=&quot;font-size: 18px;&quot;&gt;&lt;font style=&quot;font-size: 18px;&quot;&gt;&lt;b style=&quot;&quot;&gt;resetear()&lt;/b&gt;&lt;/font&gt;&lt;/div&gt;" style="text;html=1;align=center;verticalAlign=middle;whiteSpace=wrap;rounded=0;" parent="1" vertex="1">
          <mxGeometry x="234" y="1751" width="60" height="30" as="geometry" />
        </mxCell>
        <mxCell id="AqgshkSy5Ium3Ee_vgH5-3" value="" style="endArrow=classic;html=1;rounded=0;exitX=0.766;exitY=0.884;exitDx=0;exitDy=0;exitPerimeter=0;entryX=1;entryY=0.5;entryDx=0;entryDy=0;" parent="1" source="MfplE-wGYaaptmmhJZ9_-195" target="MfplE-wGYaaptmmhJZ9_-4" edge="1">
          <mxGeometry width="50" height="50" relative="1" as="geometry">
            <mxPoint x="220" y="1655" as="sourcePoint" />
            <mxPoint x="2160" y="150" as="targetPoint" />
            <Array as="points">
              <mxPoint x="415" y="1885" />
              <mxPoint x="1215" y="1895" />
              <mxPoint x="1735" y="1605" />
              <mxPoint x="2200" y="770" />
              <mxPoint x="2250" y="280" />
            </Array>
          </mxGeometry>
        </mxCell>
      </root>
    </mxGraphModel>
  </diagram>
</mxfile>
